
<!-- Generator: visioncortex VTracer 0.6.4 -->
<svg version="1.1" xmlns="http://www.w3.org/2000/svg" viewBox="0 0 512 512" preserveAspectRatio="xMidYMid meet">
<path d="M0 0 C19.643 16.507 34.96 37.871 38 64 C39.998 92.248 35.215 117.537 16.738 139.715 C12.352 144.667 7.732 149.38 3 154 C3.211 154.658 3.422 155.315 3.639 155.993 C5.741 163.014 6.546 169.436 6.5 176.75 C6.495 177.796 6.49 178.842 6.485 179.92 C6.122 196.145 -0.222 209.727 -11.336 221.547 C-27.003 235.974 -44.09 238.758 -64.6 238.631 C-66.739 238.636 -68.878 238.644 -71.016 238.653 C-76.783 238.671 -82.549 238.658 -88.315 238.639 C-94.372 238.622 -100.429 238.631 -106.486 238.636 C-116.652 238.641 -126.818 238.625 -136.984 238.597 C-148.713 238.565 -160.441 238.565 -172.169 238.582 C-183.487 238.598 -194.805 238.591 -206.123 238.574 C-210.924 238.567 -215.725 238.568 -220.526 238.576 C-226.185 238.583 -231.843 238.571 -237.502 238.544 C-239.57 238.537 -241.639 238.537 -243.707 238.544 C-264.724 238.609 -281.392 234.054 -297 219 C-309.921 204.313 -314.066 189.47 -313.191 170.345 C-312.766 165.124 -311.217 160.704 -309 156 C-308.526 154.947 -308.051 153.894 -307.562 152.809 C-299.059 135.495 -284.09 122.547 -266 116 C-258.311 113.746 -251.001 112.586 -243 113 C-243.041 111.783 -243.082 110.566 -243.125 109.312 C-243.028 88.568 -235.105 71.756 -221 57 C-220.47 56.395 -219.94 55.791 -219.395 55.168 C-206.734 41.27 -186.508 31.982 -168 30 C-165.83 29.975 -163.658 29.987 -161.488 30.027 C-150.382 30.825 -150.382 30.825 -140.055 27.79 C-136.93 24.633 -135.046 20.817 -133.065 16.882 C-124.466 1.683 -104.791 -8.382 -89 -14 C-88.37 -14.224 -87.74 -14.449 -87.091 -14.68 C-58.543 -24.262 -23.921 -18.108 0 0 Z " fill="#1975D1" transform="translate(346,194)"/>
<path d="M0 0 C19.643 16.507 34.96 37.871 38 64 C39.998 92.254 35.216 117.585 16.703 139.75 C14.516 142.216 12.28 144.619 10 147 C9.407 147.645 8.814 148.289 8.203 148.953 C6.868 150.367 5.442 151.695 4 153 C3.01 153 2.02 153 1 153 C0.694 152.273 0.389 151.546 0.074 150.797 C-6.843 135.598 -18.966 124.067 -34.227 117.289 C-41.289 114.876 -48.619 113.944 -56 113 C-56.112 111.654 -56.112 111.654 -56.227 110.281 C-57.907 94.331 -63.083 81.614 -73 69 C-73.922 67.803 -73.922 67.803 -74.863 66.582 C-91.53 46.418 -116.806 35.537 -142 31 C-135.738 13.154 -117.397 -0.786 -101.082 -9.039 C-97.137 -10.927 -93.119 -12.535 -89 -14 C-88.37 -14.224 -87.74 -14.449 -87.091 -14.68 C-58.543 -24.262 -23.921 -18.108 0 0 Z " fill="#FE9F00" transform="translate(346,194)"/>
<path d="M0 0 C5.064 2.967 8.965 7.15 13.066 11.297 C13.917 12.147 14.768 12.998 15.644 13.874 C17.434 15.666 19.22 17.461 21.002 19.26 C23.733 22.015 26.478 24.756 29.224 27.496 C30.964 29.241 32.703 30.987 34.441 32.734 C35.672 33.964 35.672 33.964 36.928 35.219 C37.686 35.986 38.444 36.754 39.225 37.545 C40.226 38.553 40.226 38.553 41.247 39.581 C45.136 44.075 45.361 47.972 45.23 53.758 C44.746 58.077 43.647 60.091 40.921 63.516 C35.931 67.487 31.963 67.974 25.667 68.047 C18.381 66.637 13.152 60.053 8.128 55.023 C7.3 54.2 6.472 53.376 5.62 52.528 C3.876 50.79 2.136 49.05 0.398 47.308 C-2.259 44.648 -4.929 42.001 -7.6 39.355 C-9.296 37.662 -10.991 35.968 -12.684 34.273 C-13.481 33.486 -14.278 32.698 -15.099 31.887 C-19.916 27.029 -24.471 22.381 -24.579 15.141 C-24.378 9.963 -22.498 6.351 -19.079 2.516 C-13.485 -2.412 -6.662 -3.212 0 0 Z " fill="#202020" transform="translate(171.078857421875,132.484375)"/>
<path d="M0 0 C4.442 2.497 6.995 5.758 8.812 10.5 C9.878 15.989 9.061 19.611 6.224 24.459 C3.336 28.635 -0.37 32.086 -3.969 35.645 C-4.819 36.496 -5.67 37.347 -6.546 38.223 C-8.338 40.013 -10.133 41.799 -11.932 43.581 C-14.687 46.312 -17.428 49.056 -20.168 51.803 C-21.913 53.542 -23.659 55.281 -25.406 57.02 C-26.226 57.84 -27.046 58.661 -27.891 59.507 C-28.658 60.265 -29.426 61.023 -30.217 61.804 C-31.225 62.805 -31.225 62.805 -32.253 63.826 C-36.747 67.715 -40.644 67.94 -46.43 67.809 C-50.749 67.325 -52.763 66.226 -56.188 63.5 C-60.159 58.51 -60.646 54.542 -60.719 48.246 C-59.309 40.959 -52.725 35.731 -47.695 30.707 C-46.46 29.465 -46.46 29.465 -45.2 28.198 C-43.462 26.455 -41.722 24.715 -39.98 22.977 C-37.32 20.32 -34.673 17.65 -32.027 14.979 C-30.334 13.283 -28.64 11.588 -26.945 9.895 C-26.158 9.098 -25.37 8.301 -24.558 7.48 C-17.279 0.261 -10.213 -4.327 0 0 Z " fill="#202020" transform="translate(420.1875,132.5)"/>
<path d="M0 0 C1.309 -0.004 2.618 -0.008 3.967 -0.012 C6.731 -0.017 9.494 -0.009 12.258 0.01 C15.789 0.033 19.318 0.019 22.849 -0.005 C26.233 -0.023 29.616 -0.01 33 0 C34.894 -0.012 34.894 -0.012 36.826 -0.025 C47.68 0.091 47.68 0.091 52.5 4.531 C56.128 8.351 56.81 11.414 57 16.531 C56.81 21.648 56.128 24.712 52.5 28.531 C46.745 33.832 40.509 33.111 33 33.062 C31.691 33.066 30.382 33.07 29.033 33.074 C26.269 33.08 23.506 33.071 20.742 33.053 C17.211 33.03 13.682 33.043 10.151 33.067 C6.767 33.085 3.384 33.072 0 33.062 C-1.263 33.071 -2.525 33.079 -3.826 33.087 C-14.68 32.971 -14.68 32.971 -19.5 28.531 C-23.128 24.712 -23.81 21.648 -24 16.531 C-23.81 11.414 -23.128 8.351 -19.5 4.531 C-13.745 -0.77 -7.509 -0.048 0 0 Z " fill="#212121" transform="translate(423.5,255.46875)"/>
<path d="M0 0 C4.641 2.155 8.071 5.203 10 10 C10.6 14.499 10.56 18.967 10.531 23.5 C10.535 24.809 10.539 26.118 10.543 27.467 C10.549 30.231 10.54 32.994 10.521 35.758 C10.499 39.289 10.512 42.818 10.536 46.349 C10.554 49.733 10.541 53.116 10.531 56.5 C10.539 57.763 10.547 59.025 10.556 60.326 C10.44 71.18 10.44 71.18 6 76 C2.181 79.628 -0.883 80.31 -6 80.5 C-11.117 80.31 -14.181 79.628 -18 76 C-23.301 70.245 -22.579 64.009 -22.531 56.5 C-22.535 55.191 -22.539 53.882 -22.543 52.533 C-22.549 49.769 -22.54 47.006 -22.521 44.242 C-22.499 40.711 -22.512 37.182 -22.536 33.651 C-22.554 30.267 -22.541 26.884 -22.531 23.5 C-22.539 22.237 -22.547 20.975 -22.556 19.674 C-22.44 8.82 -22.44 8.82 -18 4 C-12.729 -1.008 -6.892 -0.928 0 0 Z " fill="#212121" transform="translate(294,80)"/>
<path d="M0 0 C5.015 2.959 8.943 6.636 13.043 10.742 C13.693 11.388 14.344 12.034 15.014 12.7 C16.38 14.06 17.744 15.424 19.105 16.79 C21.183 18.87 23.273 20.937 25.365 23.004 C26.696 24.333 28.026 25.662 29.355 26.992 C29.977 27.605 30.599 28.218 31.24 28.849 C35.636 33.292 39.403 37.825 39.5 44.375 C39.291 49.542 37.512 53.232 34 57 C28.955 60.819 24.201 61.787 18 61 C12.208 58.192 8.098 54.527 3.605 49.969 C2.932 49.296 2.259 48.623 1.565 47.93 C0.152 46.514 -1.257 45.096 -2.663 43.673 C-4.815 41.498 -6.98 39.336 -9.146 37.176 C-10.522 35.795 -11.896 34.414 -13.27 33.031 C-13.915 32.386 -14.561 31.741 -15.227 31.077 C-16.123 30.166 -16.123 30.166 -17.038 29.236 C-17.563 28.707 -18.089 28.177 -18.63 27.631 C-22.291 23.274 -22.434 19.278 -22.309 13.758 C-21.825 9.438 -20.726 7.425 -18 4 C-12.555 -0.334 -6.87 -1.329 0 0 Z " fill="#202020" transform="translate(390,352)"/>
</svg>